<svg width="43" height="207" viewBox="0 0 43 207" fill="none" xmlns="http://www.w3.org/2000/svg">
<path d="M0.250719 10.7372C0.250719 9.18532 0.585011 7.67539 1.08647 6.20742C1.62972 4.73944 2.34012 3.43924 3.21768 2.34875C4.13702 1.25825 5.13995 0.461363 6.26823 0L7.73081 3.43922C6.97862 3.73282 6.31002 4.2781 5.68319 5.11694C5.09816 5.95579 4.59668 6.87851 4.22058 7.92706C3.84449 8.97561 3.67735 10.0242 3.67735 11.0727C3.67735 12.2052 3.84449 13.2957 4.22058 14.3023C4.59668 15.3089 5.13994 16.1058 5.80855 16.7349C6.51895 17.3641 7.35471 17.6996 8.31584 17.6996C9.36054 17.6996 10.1545 17.364 10.7396 16.6929C11.3246 16.0219 11.826 15.1411 12.1603 14.1345C12.5364 13.0859 12.8707 12.0374 13.1632 10.9469C13.7065 8.93368 14.2916 7.17213 14.9602 5.66221C15.6288 4.1523 16.4645 2.93597 17.4674 2.05519C18.5121 1.21634 19.8076 0.796911 21.4374 0.796911C23.1507 0.796911 24.6132 1.25826 25.8669 2.22293C27.1205 3.1876 28.0817 4.48782 28.7503 6.03968C29.4607 7.63348 29.795 9.31113 29.795 11.1146C29.795 13.4215 29.2935 15.5186 28.2906 17.406C27.2877 19.2934 25.9922 20.6775 24.3207 21.5163L22.4402 18.3287C23.1924 17.9932 23.861 17.4479 24.446 16.7349C24.9893 15.98 25.449 15.1411 25.7833 14.2184C26.1176 13.2957 26.2847 12.3729 26.2847 11.4083C26.2847 10.1919 26.1176 9.05949 25.7415 8.05288C25.3654 7.00433 24.864 6.16546 24.1536 5.53633C23.4432 4.9072 22.5656 4.61366 21.5209 4.61366C20.4762 4.61366 19.6822 4.9072 19.139 5.53633C18.5957 6.16546 18.1779 7.00433 17.8436 8.05288C17.5093 9.14338 17.1332 10.3178 16.7153 11.6599C16.172 13.3795 15.5452 14.9733 14.8766 16.4832C14.1662 17.9931 13.3304 19.2095 12.2857 20.1322C11.241 21.055 9.94559 21.5163 8.35763 21.4743C6.68611 21.4743 5.18171 20.971 3.92807 19.9644C2.67442 18.9578 1.71332 17.6157 1.0447 16.0219C0.376094 14.3861 0.0835712 12.6665 0.125359 10.8211L0.250719 10.7372ZM7.85616 46.2202L5.93391 49.7434C4.13702 48.4432 2.71621 46.8494 1.6715 44.8361C0.585009 42.8649 0.0835623 40.7258 0.0835623 38.4609C0.0835623 35.8605 0.752187 33.4698 2.08941 31.3308C3.42663 29.1917 5.22352 27.514 7.43829 26.2138C9.69485 24.9556 12.1603 24.3264 14.9183 24.3264C16.966 24.3264 18.8882 24.7039 20.6851 25.4169C22.482 26.1719 24.07 27.1785 25.4072 28.4368C26.7862 29.737 27.8309 31.2469 28.6249 32.9665C29.377 34.6861 29.795 36.4896 29.795 38.4609C29.795 40.7677 29.2517 42.9068 28.207 44.8361C27.1205 46.8074 25.6997 48.4432 23.9028 49.7434L22.0224 46.2202C23.276 45.2556 24.1953 44.0811 24.864 42.6971C25.5326 41.313 25.8669 39.9289 25.8669 38.5028C25.8669 36.6154 25.3654 34.8958 24.3625 33.344C23.3596 31.7921 22.0224 30.5758 20.3926 29.6531C18.7211 28.7723 16.9242 28.3109 14.9602 28.3109C12.9961 28.3109 11.1574 28.7723 9.5277 29.6531C7.85617 30.5758 6.56072 31.7921 5.5578 33.344C4.59667 34.8958 4.09522 36.6155 4.09522 38.4609C4.09522 40.0128 4.47133 41.4388 5.18172 42.8229C5.89212 44.165 6.81146 45.2975 7.98152 46.2202H7.85616ZM28.9174 77.7188V81.6613H0.752188V77.7188L5.97571 77.5929C4.17882 76.6702 2.75802 75.37 1.62974 73.7343C0.543244 72.0566 0 70.0853 0 67.7785C0 65.7233 0.376088 63.7521 1.17006 61.9485C1.96404 60.145 3.05053 58.5512 4.42954 57.1671C5.80855 55.7831 7.39649 54.7345 9.19339 53.9376C10.9903 53.1826 12.9125 52.7632 15.0019 52.7632C17.0913 52.7632 18.93 53.1407 20.7269 53.8957C22.5238 54.6506 24.07 55.7411 25.449 57.0413C26.7862 58.3835 27.8727 59.9772 28.6249 61.7388C29.377 63.5423 29.795 65.4297 29.795 67.4849C29.795 69.8336 29.2517 71.8888 28.1234 73.6504C26.9951 75.4119 25.5744 76.796 23.7775 77.8446L29.0428 77.7188H28.9174ZM3.8863 67.6946C3.8863 69.7078 4.38775 71.4275 5.34888 72.8954C6.3518 74.3634 7.68901 75.4539 9.36054 76.2508C11.0321 77.0477 12.8707 77.4251 14.8766 77.4251C16.8824 77.4251 18.8047 77.0477 20.4344 76.2508C22.1059 75.4539 23.4431 74.3215 24.4043 72.8954C25.3654 71.4275 25.8669 69.7078 25.8669 67.7365C25.8669 65.7652 25.3654 63.9198 24.3625 62.2421C23.4014 60.6064 22.0642 59.3061 20.3926 58.2995C18.7211 57.3349 16.8824 56.8735 14.8348 56.8735C12.7872 56.8735 10.9485 57.3768 9.27698 58.3834C7.60545 59.39 6.31001 60.6903 5.34888 62.326C4.38775 64.0037 3.8863 65.7652 3.8863 67.7365V67.6946ZM18.1778 111.985H0.752188V108.043H17.3839C18.9301 108.043 20.3091 107.665 21.5627 106.911C22.8164 106.156 23.8193 105.149 24.5715 103.891C25.3237 102.632 25.6997 101.206 25.6997 99.6965C25.6997 98.1865 25.3237 96.7605 24.5715 95.5022C23.8193 94.244 22.8164 93.2374 21.5627 92.4824C20.3091 91.7274 18.8883 91.35 17.3839 91.35H0.752188V87.4074H28.9174V91.35H25.0311C26.4519 92.3566 27.5802 93.6567 28.4577 95.2505C29.2935 96.8443 29.7114 98.6059 29.7114 100.493C29.7114 102.632 29.2099 104.562 28.1652 106.323C27.1205 108.085 25.7415 109.469 23.9864 110.518C22.2313 111.566 20.309 112.069 18.1778 112.069V111.985ZM24.9893 145.665V138.912H0.752188V134.928H24.9893V129.853H28.9174V134.97H37.7765V138.912H28.9174V145.707H24.9893V145.665ZM18.1778 175.36H0.752188V171.417H17.3839C18.9301 171.417 20.3091 171.04 21.5627 170.285C22.8164 169.53 23.8193 168.523 24.5715 167.265C25.3237 166.007 25.6997 164.581 25.6997 163.071C25.6997 161.561 25.3237 160.135 24.5715 158.877C23.8193 157.619 22.8164 156.612 21.5627 155.857C20.3091 155.102 18.8883 154.725 17.3839 154.725H0.752188V150.782H43V154.725H25.0311C26.4519 155.731 27.5802 157.031 28.4577 158.625C29.2935 160.219 29.7114 161.98 29.7114 163.868C29.7114 166.007 29.2099 167.936 28.1652 169.698C27.1205 171.459 25.7415 172.843 23.9864 173.892C22.2313 174.941 20.309 175.444 18.1778 175.444V175.36ZM0.0417652 192.892C0.0417652 190.291 0.71039 187.901 2.04761 185.762C3.38483 183.623 5.18172 181.945 7.39649 180.645C9.65305 179.386 12.1186 178.757 14.8766 178.757C16.9242 178.757 18.8465 179.135 20.6434 179.848C22.4403 180.603 24.0282 181.609 25.3654 182.868C26.7444 184.168 27.7891 185.678 28.5831 187.397C29.3353 189.117 29.7532 190.921 29.7532 192.892C29.7532 194.989 29.3353 196.918 28.4995 198.68C27.6637 200.441 26.5354 201.951 25.0311 203.252C23.5267 204.552 21.8134 205.474 19.8076 206.146C17.8017 206.817 15.6706 207.068 13.3722 206.984V183.035C11.5753 183.245 9.98735 183.832 8.56656 184.713C7.14576 185.636 6.05929 186.81 5.22352 188.236C4.42955 189.662 4.01165 191.256 3.96986 192.976C3.96986 194.863 4.47132 196.541 5.43244 198.051C6.39357 199.561 7.77258 200.819 9.4441 201.742L8.52479 205.768C6.0175 204.636 3.96988 202.916 2.38192 200.651C0.793974 198.386 0 195.828 0 192.976L0.0417652 192.892ZM16.5481 182.826V202.916C18.3032 202.79 19.8912 202.245 21.3538 201.322C22.8163 200.399 23.9864 199.183 24.864 197.715C25.7415 196.247 26.2012 194.653 26.2012 192.892C26.2012 191.13 25.7833 189.536 24.9057 188.068C24.07 186.601 22.8999 185.426 21.4374 184.503C19.9748 183.581 18.3868 182.993 16.5899 182.826H16.5481Z" fill="currentColor"/>
</svg>
