<svg xmlns="http://www.w3.org/2000/svg" viewBox="0 0 208.83 45.12" width="208.83" height="45.12" >
  <path fill="currentColor" d="M203.22,45.12h-6.5v-16.95c-5.8,8.1-13.03,12.11-18.96,13.47-1.38.32-2.69.49-3.9.53-9.51.3-14.41-5.79-14.41-15.12V9.92h-2.95V1.83h34.79v8.09h-25.34v17.31c0,4.78,2.3,7.03,7.91,6.85,6.38-.24,15.47-4.02,22.86-14.23V1.24h6.5v17.78h5.61v8.27h-5.61v17.84Z"/>
  <path fill="currentColor" d="M150.66,45.12h-6.5V1.24h6.5v17.78h5.61v8.27h-5.61v17.84ZM103.47,13.47c4.55,0,11.99.41,18.49,2.24,6.56-1.83,14-2.24,18.55-2.24v7.86c-2.13,0-4.84.12-7.56.35,1.77,1.95,2.89,4.49,2.89,7.56,0,8.62-7.68,12.64-13.82,12.64s-13.94-4.19-13.94-12.64c0-3.07,1.12-5.61,2.89-7.56-2.72-.24-5.37-.35-7.5-.35v-7.86ZM135.6,8.45c-8.98,0-18.25,0-27.7-1.12V0c9.21,1.18,18.43,1.18,27.7,1.18v7.26ZM115.11,29.24c0,3.13,3.84,4.84,6.91,4.84s6.79-1.71,6.79-4.84c0-2.54-2.83-4.31-6.85-5.55-4.02,1.24-6.85,3.01-6.85,5.55Z"/>
  <path fill="currentColor" d="M99.93,21.91c-6.67,1.65-18.37,3.48-24.51-5.55-5.43,4.49-12.58,6.73-19.14,6.73v-8.21c6.97,0,14.23-1.12,19.43-4.9h-18.84V1.83h42.41v8.15h-18.31c-.53.89-1.18,1.77-1.83,2.6,3.96,4.73,14.59,2.54,20.79,1v8.33ZM53.39,34.49v-8.27h49.38v8.27h-21.44v10.63h-6.5v-10.63h-21.44Z"/>
  <path fill="currentColor" d="M45.54,45.12h-6.5V1.24h6.5v17.78h5.61v8.27h-5.61v17.84ZM33.61,33.67v7.97l-22.56-.06c-7.21,0-11.04-4.08-11.04-11.1V1.83l21.32.12c15.59.12,15.42,16.77,5.26,31.72h7.03ZM6.5,30.54c0,2.48.71,3.07,4.78,3.07h9.51c7.5-14.18,8.62-23.63.47-23.68l-14.77-.06v20.67Z"/>
</svg>